<svg xmlns="http://www.w3.org/2000/svg" viewBox="0 0 1561.36 568.76">
    <defs>
        <style>.cls-1{opacity:0.99;font-size:187.05px;font-family:ArialNarrow-Bold,
            Arial;font-weight:700;letter-spacing:0.1em;}.cls-1,.cls-2{fill:#fff;}
        </style>
    </defs>
    <title>doer-white</title>
    <g id="Layer_2" data-name="Layer 2">
        <g id="Layer_1-2" data-name="Layer 1">
            <text class="cls-1" transform="translate(643.49 380.83)">DOER</text>
            <path class="cls-2"
                  d="M378.17,164.51a59.43,59.43,0,0,0,57.94-24.32l-39-6.31a29.26,29.26,0,0,1-14.22,1.2A29.57,29.57,0,1,1,404,81.3l40.16,6.51a59.36,59.36,0,1,0-66,76.7Z"/>
            <path class="cls-2"
                  d="M387.8,166.46a61.71,61.71,0,0,1-9.82-.79A60.55,60.55,0,1,1,445.3,87.45l.58,1.82-42.51-7a28.38,28.38,0,1,0-20.25,51.65,28.42,28.42,0,0,0,13.66-1.15l.27-.1,41.11,6.65-1.09,1.53A60.23,60.23,0,0,1,387.8,166.46Zm-.18-118.77A58.21,58.21,0,1,0,434,141l-36.79-6a30.72,30.72,0,1,1-4.69-59.52,30.36,30.36,0,0,1,11.89,4.63l38,6.15a58.19,58.19,0,0,0-54.83-38.65Z"/>
            <path class="cls-2"
                  d="M348.39,340.63a248.65,248.65,0,0,1,7.67-30c72.43,37.15,164.49,29.43,230.51-29.52l-19.86-22.24c-57.57,51.42-137.86,57-199.73,23.84q3.31-7.12,7.06-14.05C430.6,299.16,503.83,294,556.26,247.18L536.41,225a130,130,0,0,1-146.58,18.37q4.6-6.51,9.66-12.72l.34.17.42.27,0-.06A114.17,114.17,0,0,0,526,213.25L506.1,191c-18.61,21.59-56.82,32.29-91.28,16A104.76,104.76,0,1,0,304,168.82c-81.39-6.44-170.59,27-221.46,102.26l24.7,16.68c59.24-87.69,173.32-116.66,266-72.18a278,278,0,0,0-56.46,133.2l-1.78,12.73,12.33,3.63c89.21,26.27,151.5,109.52,151.5,202.45H508.7a238.44,238.44,0,0,0-49-145.47A243.49,243.49,0,0,0,348.39,340.63ZM313.7,93.93a74.91,74.91,0,0,1,148.85,11L389.72,93.12a12.94,12.94,0,0,0-4.13,25.55l72.82,11.79A74.91,74.91,0,0,1,313.7,93.93Z"/>
            <path class="cls-2"
                  d="M509.87,568.76H477.72v-1.17c0-92.42-62-175.21-150.66-201.33l-13.29-3.92,1.91-13.72A279.91,279.91,0,0,1,371.48,216c-92.77-43.71-205.71-12.74-263.24,72.41l-.65,1L81,271.39l.65-1c47.17-69.81,131.28-109.11,220-103A105,105,0,0,1,283.12,89a105.89,105.89,0,1,1,135.1,118.26c34.37,14.69,70.19,2.51,87-17l.87-1,21.52,24.1-.87.78a115.15,115.15,0,0,1-126.07,18.34l-.1.13-.8-.48c-2.84,3.52-5.59,7.14-8.21,10.79a129.49,129.49,0,0,0,144.07-18.82l.87-.78,21.41,24-.87.78a161.42,161.42,0,0,1-182.53,22.19c-2.1,3.91-4.11,7.93-6,12A174.88,174.88,0,0,0,565.93,258l.87-.78,21.42,24-.88.78a204.92,204.92,0,0,1-113.49,51.09,206.53,206.53,0,0,1-117.1-20.77,248.4,248.4,0,0,0-7,27.56,246.1,246.1,0,0,1,110.88,81.54,239.57,239.57,0,0,1,49.26,146.18Zm-29.81-2.34h27.47a237.18,237.18,0,0,0-48.78-143.59A243.66,243.66,0,0,0,348,341.73l-.95-.33.19-1a252.21,252.21,0,0,1,7.7-30.14l.43-1.31,1.22.63C432,348.28,521.48,337,584.91,281l-18.3-20.49a177.22,177.22,0,0,1-200.18,23.22l-1-.52.46-1c2.21-4.77,4.59-9.52,7.09-14.12l.55-1,1,.56a159.08,159.08,0,0,0,180-20.55l-18.3-20.5a131.83,131.83,0,0,1-147,17.76l-1.19-.61.77-1.1c3.07-4.33,6.34-8.63,9.71-12.78l.59-.72,1.63.79a112.81,112.81,0,0,0,123.5-16.78l-18.19-20.38c-18.21,20.11-56.09,32.17-91.79,15.28l-2.86-1.36,3.06-.82A103.54,103.54,0,1,0,285.43,89.36,102.65,102.65,0,0,0,305,168.11l1.56,2.08-2.59-.21c-88.37-7-172.47,31.6-219.74,100.78L107,286.14a212.52,212.52,0,0,1,266.85-71.61l1.31.63-.9,1.14A277.58,277.58,0,0,0,318,348.94l-1.63,11.73L327.72,364C417.05,390.32,479.54,473.44,480.06,566.42ZM387.77,182a76.09,76.09,0,1,1,75.94-77.1l0,1.4-74.2-12a11.77,11.77,0,0,0-3.75,23.24l74.19,12-.46,1.31A75.92,75.92,0,0,1,387.77,182Zm-.23-149.85a73.75,73.75,0,1,0,69.3,99.25L385.4,119.83A14.11,14.11,0,0,1,389.91,92l71.44,11.56A73.61,73.61,0,0,0,399.43,33.1,74.66,74.66,0,0,0,387.54,32.14Z"/>
            <path class="cls-2"
                  d="M304.14,375.3c-2.65-.55-5.32-2.61-5.17-5.11,2.76-47.5,15.93-92.93,38.12-131.38l10-17.26-19.36-4.68a196.16,196.16,0,0,0-114.91,6.81,191.92,191.92,0,0,0-92.5,72.86L145,313.23c35.1-52,95-78.55,156.52-70.89q-3.44,7-6.53,14.32A149.71,149.71,0,0,0,158,322l24.7,16.68a119.23,119.23,0,0,1,52.05-43,368.54,368.54,0,0,0-9.85,56.22A120.18,120.18,0,0,1,89.58,324.22l-21.7,20.44A150,150,0,0,0,225,383.75,84.66,84.66,0,0,0,228.87,399c-59.16,19.45-127,4.62-172.41-43.62l-21.7,20.44a195.73,195.73,0,0,0,209.79,49.27A76.38,76.38,0,0,0,258,436.68C179.35,469.35,85.15,452.2,23.34,386.61L1.65,407.05A241.17,241.17,0,0,0,296.36,451,120.47,120.47,0,0,1,387.9,567.59h29.81c0-73.18-53.65-134.35-120.17-146.87-28.81-4.89-45.19-25.61-43.86-55.46a340.44,340.44,0,0,1,14.55-78.53,120.3,120.3,0,0,1,16-.8,342,342,0,0,0-15,82.53c-1,17.22,11.16,32.38,28.91,36,78.39,16.18,135.28,84.77,135.28,163.1h29.81c0-45.09-16.4-89.37-46.18-124.7A201.88,201.88,0,0,0,304.14,375.3Z"/>
            <path class="cls-2"
                  d="M464.38,568.76H432.23v-1.17c0-77.77-56.5-145.89-134.35-162C279.56,401.86,267,386.2,268,368.39a343,343,0,0,1,14.59-81.3,115.23,115.23,0,0,0-13.51.72,339.53,339.53,0,0,0-14.27,77.53c-1.3,29.17,14.73,49.45,42.88,54.23,69.07,13,121.15,76.63,121.15,148v1.17H386.73v-1.17a118.55,118.55,0,0,0-90.2-115.34A242.34,242.34,0,0,1,.8,407.85L0,407,23.39,385l.8.85c58.94,62.54,151.67,82.74,231.4,50.6a76.51,76.51,0,0,1-11.36-9.92A196.95,196.95,0,0,1,33.91,376.66l-.8-.85L56.5,353.76l.81.85c43.25,45.91,109.88,63,170.06,43.68a87.77,87.77,0,0,1-3.32-13A151.35,151.35,0,0,1,177,392.83,149.58,149.58,0,0,1,67,345.46l-.8-.85,23.39-22.05.81.85a119.19,119.19,0,0,0,133.34,27.67A372.36,372.36,0,0,1,233,297.69a118.19,118.19,0,0,0-49.36,41.67l-.65,1-26.64-18,.65-1a151.23,151.23,0,0,1,137.22-65.93c1.75-4.09,3.6-8.16,5.5-12.12a162.37,162.37,0,0,0-153.78,70.57l-.66,1-26.63-18,.65-1a193.08,193.08,0,0,1,93.06-73.31A197.38,197.38,0,0,1,328,215.73l20.89,5.05L338.1,239.39c-22.09,38.29-35.21,83.54-38,130.87-.1,1.84,2.12,3.46,4.25,3.9h0a203,203,0,0,1,113.55,68c29.95,35.54,46.45,80.09,46.45,125.45Zm-29.82-2.34H462c-.27-44.41-16.55-88-45.89-122.77a200.68,200.68,0,0,0-112.24-67.2h0c-3.1-.64-6.29-3.08-6.1-6.33,2.77-47.68,16-93.29,38.27-131.9l9.18-15.9L327.4,218a194.92,194.92,0,0,0-114.22,6.76,190.79,190.79,0,0,0-91.28,71.46l22.76,15.38a164.71,164.71,0,0,1,157-70.43l1.62.2-.71,1.47c-2.26,4.65-4.45,9.45-6.5,14.27l-.33.78-.84-.07A148.91,148.91,0,0,0,159.6,321.7l22.76,15.38a120.48,120.48,0,0,1,51.9-42.49l2.18-.93-.59,2.29A369.36,369.36,0,0,0,226,352l-.06.69-.64.28a121.58,121.58,0,0,1-135.8-27.1l-20,18.84A147.27,147.27,0,0,0,177,390.49a149,149,0,0,0,47.64-7.85l1.31-.44.22,1.36A84.23,84.23,0,0,0,230,398.63l.4,1.13-1.14.38c-61,20-128.66,3.13-172.82-43.08l-20,18.84C73.35,414.65,123.22,436,177,436a194,194,0,0,0,67.17-12l.74-.26.52.57a75.2,75.2,0,0,0,13.27,11.38l1.81,1.22-2,.83c-80.71,33.5-175.06,13.6-235.18-49.5l-20,18.84C48.92,455.05,110.55,481.45,177,481.45A239.86,239.86,0,0,0,295.78,450l.4-.23.46.11a120.9,120.9,0,0,1,92.43,116.55h27.46c-.56-69.81-51.62-131.83-119.21-144.55-29.41-5-46.17-26.17-44.8-56.66a341.27,341.27,0,0,1,14.59-78.82l.23-.73.75-.09a121.35,121.35,0,0,1,16.14-.81l1.57,0-.47,1.49a340.05,340.05,0,0,0-14.95,82.25c-1,16.64,10.8,31.28,28,34.82C376.89,419.56,434,488,434.56,566.42Z"/>
        </g>
    </g>
</svg>