<svg xmlns="http://www.w3.org/2000/svg" xmlns:xlink="http://www.w3.org/1999/xlink" viewBox="0 0 661.36 275.76"><defs><style>.cls-1{font-size:120px;font-family:ArialNarrow, Arial;letter-spacing:0.1em;}.cls-1,.cls-2,.cls-3,.cls-4{fill:#0170fe;}.cls-2,.cls-3,.cls-4{stroke-miterlimit:10;}.cls-2{stroke:url(#linear-gradient);}.cls-3{stroke:url(#linear-gradient-2);}.cls-4{stroke:url(#linear-gradient-3);}</style><linearGradient id="linear-gradient" x1="186.99" y1="30.44" x2="144.6" y2="60.15" gradientUnits="userSpaceOnUse"><stop offset="0" stop-color="#00ffe6"/><stop offset="1" stop-color="#0bf"/></linearGradient><linearGradient id="linear-gradient-2" x1="245.01" y1="79.44" x2="86.7" y2="190.39" xlink:href="#linear-gradient"/><linearGradient id="linear-gradient-3" x1="182.11" y1="141.38" x2="44.62" y2="237.74" xlink:href="#linear-gradient"/></defs><title>doer2</title><g id="Layer_2" data-name="Layer 2"><g id="Layer_1-2" data-name="Layer 1"><text class="cls-1" transform="translate(261.78 176.92)">DOER</text><path class="cls-2" d="M161.74,70.36A25.43,25.43,0,0,0,186.53,60l-16.67-2.7a12.64,12.64,0,1,1,2.94-22.49L190,37.55a25.39,25.39,0,1,0-28.24,32.81Z"/><path class="cls-3" d="M149,145.69a105.28,105.28,0,0,1,3.27-12.83,87.76,87.76,0,0,0,98.59-12.63l-8.49-9.51A75,75,0,0,1,157,120.92c.94-2,1.95-4,3-6a68.31,68.31,0,0,0,77.94-9.19l-8.49-9.51a55.59,55.59,0,0,1-62.69,7.86q2-2.79,4.13-5.44l.15.07.18.11v0A48.84,48.84,0,0,0,225,91.21l-8.49-9.51c-8,9.23-24.3,13.8-39,6.83A44.81,44.81,0,1,0,130,72.2c-34.81-2.75-73,11.53-94.71,43.74l10.56,7.14A90.39,90.39,0,0,1,159.66,92.2a119,119,0,0,0-24.15,57l-.76,5.45,5.28,1.55a90.78,90.78,0,0,1,64.79,86.59h12.75a102,102,0,0,0-21-62.22A104.1,104.1,0,0,0,149,145.69ZM134.17,40.17a32,32,0,0,1,63.66,4.7l-31.15-5a5.54,5.54,0,1,0-1.76,10.93l31.14,5a32,32,0,0,1-61.89-15.63Z"/><path class="cls-4" d="M130.08,160.52c-1.13-.24-2.27-1.12-2.21-2.19,1.18-20.31,6.81-39.75,16.3-56.19l4.26-7.38-8.28-2A83.78,83.78,0,0,0,91,95.67a82.08,82.08,0,0,0-39.56,31.16L62,134A69.79,69.79,0,0,1,129,103.65q-1.47,3-2.79,6.12a64.06,64.06,0,0,0-58.6,28l10.57,7.13a51.06,51.06,0,0,1,22.26-18.41,157,157,0,0,0-4.21,24,51.41,51.41,0,0,1-57.87-11.83L29,147.41a64.16,64.16,0,0,0,67.19,16.72,37,37,0,0,0,1.67,6.53A70.88,70.88,0,0,1,24.15,152l-9.28,8.74a83.73,83.73,0,0,0,89.73,21.07,32.22,32.22,0,0,0,5.76,5A90.39,90.39,0,0,1,10,165.35L.71,174.1a103.16,103.16,0,0,0,126,18.79,51.52,51.52,0,0,1,39.15,49.87h12.75c0-31.3-22.94-57.47-51.39-62.82-12.33-2.09-19.33-10.95-18.76-23.72a145.39,145.39,0,0,1,6.22-33.58,52.16,52.16,0,0,1,6.84-.35,146.63,146.63,0,0,0-6.42,35.3c-.43,7.37,4.77,13.85,12.37,15.41,33.52,6.92,57.85,36.26,57.85,69.76h12.75a83,83,0,0,0-19.75-53.34A86.33,86.33,0,0,0,130.08,160.52Z"/></g></g></svg>