<svg xmlns="http://www.w3.org/2000/svg" xmlns:xlink="http://www.w3.org/1999/xlink" viewBox="0 0 332.24 436.77"><defs><style>.cls-1{font-size:120px;letter-spacing:0.1em;}.cls-1,.cls-2,.cls-3,.cls-4,.cls-5{fill:#0170fe;}.cls-1,.cls-2{font-family:ArialNarrow, Arial;}.cls-2{font-size:28px;stroke:#5e88b7;letter-spacing:0.2em;}.cls-2,.cls-3,.cls-4,.cls-5{stroke-miterlimit:10;}.cls-3{stroke:url(#linear-gradient);}.cls-4{stroke:url(#linear-gradient-2);}.cls-5{stroke:url(#linear-gradient-3);}</style><linearGradient id="linear-gradient" x1="204.01" y1="30.44" x2="161.63" y2="60.15" gradientUnits="userSpaceOnUse"><stop offset="0" stop-color="#00ffe6"/><stop offset="1" stop-color="#0bf"/></linearGradient><linearGradient id="linear-gradient-2" x1="262.03" y1="79.44" x2="103.73" y2="190.39" xlink:href="#linear-gradient"/><linearGradient id="linear-gradient-3" x1="199.13" y1="141.38" x2="61.65" y2="237.74" xlink:href="#linear-gradient"/></defs><title>Doer1</title><g id="Layer_2" data-name="Layer 2"><g id="Layer_1-2" data-name="Layer 1"><text class="cls-1" transform="translate(0 358.6)">DOER</text><text class="cls-2" transform="translate(31.32 394.09)">let someone else<tspan x="26.29" y="33.6" xml:space="preserve"> do your work</tspan></text><path class="cls-3" d="M178.77,70.36A25.41,25.41,0,0,0,203.55,60l-16.66-2.7a12.65,12.65,0,1,1,2.93-22.49L207,37.55a25.39,25.39,0,1,0-28.23,32.81Z"/><path class="cls-4" d="M166,145.69a107.18,107.18,0,0,1,3.28-12.83,87.76,87.76,0,0,0,98.59-12.63l-8.49-9.51A75.06,75.06,0,0,1,174,120.92c1-2,2-4,3-6a68.31,68.31,0,0,0,77.94-9.19l-8.49-9.51a55.6,55.6,0,0,1-62.7,7.86q2-2.79,4.13-5.44l.15.07.18.11,0,0A48.84,48.84,0,0,0,242,91.21l-8.5-9.51c-7.95,9.23-24.3,13.8-39,6.83A44.81,44.81,0,1,0,147.06,72.2c-34.81-2.75-73,11.53-94.72,43.74l10.57,7.14A90.39,90.39,0,0,1,176.69,92.2a118.86,118.86,0,0,0-24.15,57l-.76,5.45,5.27,1.55a90.79,90.79,0,0,1,64.8,86.59H234.6a102,102,0,0,0-21-62.22A104.13,104.13,0,0,0,166,145.69ZM151.2,40.17a32,32,0,0,1,63.66,4.7l-31.15-5a5.54,5.54,0,1,0-1.77,10.93l31.15,5A32,32,0,0,1,151.2,40.17Z"/><path class="cls-5" d="M147.11,160.52c-1.14-.24-2.28-1.12-2.22-2.19,1.18-20.31,6.82-39.75,16.31-56.19l4.26-7.38-8.29-2A83.75,83.75,0,0,0,108,95.67a82,82,0,0,0-39.56,31.16L79,134A69.77,69.77,0,0,1,146,103.65q-1.47,3-2.79,6.12a64,64,0,0,0-58.59,28l10.56,7.13a51.17,51.17,0,0,1,22.26-18.41,158.24,158.24,0,0,0-4.21,24,51.39,51.39,0,0,1-57.86-11.83l-9.28,8.74a64.16,64.16,0,0,0,67.19,16.72,36.1,36.1,0,0,0,1.66,6.53A70.89,70.89,0,0,1,41.17,152l-9.28,8.74a83.73,83.73,0,0,0,89.73,21.07,32.22,32.22,0,0,0,5.76,5A90.37,90.37,0,0,1,27,165.35l-9.28,8.75a103.18,103.18,0,0,0,126.05,18.79,51.53,51.53,0,0,1,39.15,49.87h12.75c0-31.3-23-57.47-51.4-62.82C132,177.85,125,169,125.53,156.22a145.39,145.39,0,0,1,6.22-33.58,52,52,0,0,1,6.83-.35,146.13,146.13,0,0,0-6.41,35.3c-.43,7.37,4.77,13.85,12.36,15.41,33.53,6.92,57.86,36.26,57.86,69.76h12.75a83,83,0,0,0-19.75-53.34A86.36,86.36,0,0,0,147.11,160.52Z"/></g></g></svg>