<svg xmlns="http://www.w3.org/2000/svg" viewBox="0 0 497.36 243.26"><defs><style>.cls-1{opacity:0.99;font-size:80px;font-family:Plateia-Bold, Plateia Bold;font-weight:700;letter-spacing:0.1em;}.cls-1,.cls-2{fill:#fff;}</style></defs><title>doer-white</title><g id="Layer_2" data-name="Layer 2"><g id="Layer_1-2" data-name="Layer 1"><text class="cls-1" transform="translate(274.57 162.88)">DOER</text><path class="cls-2" d="M161.74,70.36A25.41,25.41,0,0,0,186.52,60l-16.66-2.7a12.53,12.53,0,0,1-6.08.52,12.65,12.65,0,1,1,9-23L190,37.55a25.39,25.39,0,1,0-28.24,32.81Z"/><path class="cls-2" d="M165.86,71.19a26,26,0,0,1-4.2-.34A25.89,25.89,0,1,1,190.45,37.4l.25.78-18.18-3a12.14,12.14,0,1,0-2.82,21.6l.12,0,17.58,2.84-.47.66A25.75,25.75,0,0,1,165.86,71.19Zm-.08-50.8a24.9,24.9,0,1,0,19.86,39.93L169.9,57.77a13.14,13.14,0,0,1-17.08-14.58A13.16,13.16,0,0,1,167.9,32.32a12.85,12.85,0,0,1,5.08,2l16.25,2.63a24.77,24.77,0,0,0-19.46-16.21A24.5,24.5,0,0,0,165.78,20.39Z"/><path class="cls-2" d="M149,145.69a105.28,105.28,0,0,1,3.27-12.83,87.76,87.76,0,0,0,98.59-12.63l-8.49-9.51A75,75,0,0,1,157,120.92c.94-2,1.95-4,3-6a68.31,68.31,0,0,0,77.94-9.19l-8.49-9.51a55.59,55.59,0,0,1-62.69,7.86q2-2.79,4.13-5.44l.15.07.18.11v0A48.84,48.84,0,0,0,225,91.21l-8.49-9.51c-8,9.23-24.3,13.8-39,6.83A44.81,44.81,0,1,0,130,72.2c-34.81-2.75-73,11.53-94.72,43.74l10.57,7.14A90.39,90.39,0,0,1,159.66,92.2a119,119,0,0,0-24.15,57l-.76,5.45,5.27,1.55a90.77,90.77,0,0,1,64.8,86.59h12.75a102,102,0,0,0-21-62.22A104.1,104.1,0,0,0,149,145.69ZM134.17,40.17a32,32,0,0,1,63.66,4.7l-31.15-5a5.54,5.54,0,1,0-1.76,10.93l31.14,5a32,32,0,0,1-61.89-15.63Z"/><path class="cls-2" d="M218.07,243.26H204.32v-.5a90.28,90.28,0,0,0-64.44-86.11L134.2,155l.82-5.87a119.68,119.68,0,0,1,23.86-56.71c-39.68-18.7-88-5.45-112.59,31l-.28.41-11.39-7.7.28-.41C55.07,85.8,91.05,69,129,71.62a44.87,44.87,0,0,1-7.9-33.56,45.29,45.29,0,1,1,57.78,50.58c14.7,6.28,30,1.07,37.21-7.27l.37-.43,9.21,10.31-.38.33a49.24,49.24,0,0,1-53.92,7.84l0,.06-.34-.21c-1.21,1.51-2.39,3.06-3.51,4.62a55.39,55.39,0,0,0,61.62-8l.37-.34,9.16,10.26-.38.33a69,69,0,0,1-78.06,9.49c-.9,1.68-1.76,3.4-2.57,5.12a74.8,74.8,0,0,0,84.44-10.35l.37-.33,9.16,10.25-.37.34a87.7,87.7,0,0,1-48.55,21.85,88.39,88.39,0,0,1-50.08-8.89,108.32,108.32,0,0,0-3,11.79A105.32,105.32,0,0,1,197,180.24a102.41,102.41,0,0,1,21.07,62.52Zm-12.75-1h11.75a101.39,101.39,0,0,0-20.87-61.42,104.12,104.12,0,0,0-47.36-34.68l-.41-.14.08-.42a107.32,107.32,0,0,1,3.3-12.89l.18-.56.52.27a86.75,86.75,0,0,0,97.66-12.23l-7.83-8.76a75.8,75.8,0,0,1-85.62,9.93l-.41-.22.19-.43c.95-2,2-4.07,3-6l.24-.44.44.24a68,68,0,0,0,77-8.79l-7.82-8.77a56.38,56.38,0,0,1-62.88,7.6l-.51-.26.33-.47c1.31-1.85,2.71-3.69,4.15-5.47l.25-.31.7.34a48.24,48.24,0,0,0,52.82-7.18l-7.78-8.71c-7.78,8.6-24,13.75-39.25,6.53L176,88.4l1.31-.35a44.28,44.28,0,1,0-55.21-49.83,43.91,43.91,0,0,0,8.35,33.68l.67.89L130,72.7c-37.8-3-73.77,13.52-94,43.1l9.74,6.58A90.9,90.9,0,0,1,159.88,91.75l.56.27-.39.49a118.64,118.64,0,0,0-24,56.73l-.7,5,4.86,1.43A91.29,91.29,0,0,1,205.32,242.26ZM165.85,77.84a32.54,32.54,0,0,1-19.08-58.93,32.52,32.52,0,0,1,51.56,26v.6L166.6,40.32a5,5,0,1,0-1.6,9.94l31.73,5.14-.2.56A32.46,32.46,0,0,1,165.85,77.84Zm-.1-64.09a31.54,31.54,0,1,0,29.64,42.44l-30.55-4.94a6,6,0,1,1,1.92-11.91l30.56,4.94a31.57,31.57,0,0,0-31.57-30.53Z"/><path class="cls-2" d="M130.08,160.52c-1.14-.24-2.27-1.12-2.21-2.19,1.18-20.31,6.81-39.75,16.3-56.19l4.26-7.39-8.28-2A83.86,83.86,0,0,0,91,95.67a82.08,82.08,0,0,0-39.56,31.16L62,134a69.79,69.79,0,0,1,66.94-30.32q-1.45,3-2.78,6.12a64,64,0,0,0-58.6,28l10.57,7.13a51.06,51.06,0,0,1,22.26-18.41,157,157,0,0,0-4.21,24,51.41,51.41,0,0,1-57.87-11.83L29,147.41a64.16,64.16,0,0,0,67.19,16.72,36.11,36.11,0,0,0,1.67,6.53A70.88,70.88,0,0,1,24.15,152l-9.28,8.74a83.73,83.73,0,0,0,89.73,21.07,32.22,32.22,0,0,0,5.76,5A90.39,90.39,0,0,1,10,165.35L.71,174.1a103.16,103.16,0,0,0,126,18.79,51.52,51.52,0,0,1,39.15,49.87h12.75c0-31.3-22.94-57.47-51.39-62.82-12.33-2.09-19.33-10.95-18.76-23.72a145.57,145.57,0,0,1,6.22-33.59,53.94,53.94,0,0,1,6.84-.34,146.14,146.14,0,0,0-6.42,35.3c-.43,7.36,4.77,13.85,12.37,15.41,33.52,6.92,57.85,36.26,57.85,69.76h12.75a83,83,0,0,0-19.75-53.34A86.28,86.28,0,0,0,130.08,160.52Z"/><path class="cls-2" d="M198.61,243.26H184.86v-.5c0-33.27-24.16-62.4-57.46-69.27-7.83-1.61-13.2-8.31-12.76-15.93a146.53,146.53,0,0,1,6.24-34.77,49.92,49.92,0,0,0-5.78.3,145.64,145.64,0,0,0-6.1,33.16c-.56,12.48,6.3,21.16,18.34,23.2,29.54,5.56,51.81,32.77,51.81,63.31v.5H165.4v-.5a50.71,50.71,0,0,0-38.57-49.33,103.7,103.7,0,0,1-126.49-19L0,174.08l10-9.43.35.36a90.28,90.28,0,0,0,99,21.64,33.51,33.51,0,0,1-4.87-4.24A84.25,84.25,0,0,1,14.5,161.09l-.34-.36,10-9.43.34.37a70.67,70.67,0,0,0,72.74,18.68,36.52,36.52,0,0,1-1.42-5.56A64.72,64.72,0,0,1,75.69,168a64,64,0,0,1-47-20.26l-.35-.36,10-9.43.34.36a51,51,0,0,0,57,11.84,158.79,158.79,0,0,1,3.94-22.84,50.63,50.63,0,0,0-21.11,17.82l-.28.42-11.39-7.7.28-.41a64.68,64.68,0,0,1,58.69-28.2c.75-1.75,1.54-3.49,2.35-5.19a69.43,69.43,0,0,0-65.77,30.19l-.28.41L50.75,127l.28-.42A82.52,82.52,0,0,1,90.83,95.2a84.31,84.31,0,0,1,49.43-2.93l8.94,2.16-4.6,8c-9.44,16.37-15.06,35.73-16.23,56-.05.79.9,1.48,1.81,1.67h0a86.88,86.88,0,0,1,48.57,29.07,83.53,83.53,0,0,1,19.86,53.66Zm-12.75-1h11.75A82.5,82.5,0,0,0,178,189.75,85.83,85.83,0,0,0,130,161h0c-1.33-.27-2.69-1.31-2.61-2.7,1.18-20.4,6.84-39.9,16.37-56.41l3.92-6.81L140,93.24a83.39,83.39,0,0,0-48.86,2.9,81.51,81.51,0,0,0-39,30.56l9.73,6.57A70.46,70.46,0,0,1,129,103.15l.69.09-.31.63c-1,2-1.9,4-2.77,6.1l-.15.33-.36,0a63.7,63.7,0,0,0-57.85,27.32L78,144.17A51.52,51.52,0,0,1,100.19,126l.93-.39-.25,1a159.09,159.09,0,0,0-4.2,24l0,.29-.27.12a52,52,0,0,1-58.08-11.59l-8.55,8.06a63,63,0,0,0,46,19.58,63.64,63.64,0,0,0,20.37-3.36l.57-.19.09.59a35,35,0,0,0,1.64,6.45l.17.48-.49.16a71.64,71.64,0,0,1-73.91-18.43l-8.55,8.06a83.21,83.21,0,0,0,88.84,20.58l.32-.11.22.25a32,32,0,0,0,5.68,4.86l.77.52-.86.36A91.29,91.29,0,0,1,10,166.06l-8.55,8.06A102.68,102.68,0,0,0,126.5,192.46l.18-.1.19,0a51.69,51.69,0,0,1,39.53,49.85h11.75c-.24-29.86-22.08-56.39-51-61.83-12.58-2.13-19.74-11.19-19.16-24.23a146.33,146.33,0,0,1,6.24-33.71l.1-.31.32,0a50.87,50.87,0,0,1,6.9-.35h.67l-.2.64a145.9,145.9,0,0,0-6.39,35.18c-.41,7.11,4.62,13.38,12,14.89C161.2,179.44,185.62,208.73,185.86,242.26Z"/></g></g></svg>